<?xml version="1.0" encoding="utf-8"?>
<svg viewBox="0 0 17 17" xmlns="http://www.w3.org/2000/svg">
  <path d="M 9.125 8.5 L 14.991 14.367 L 14.367 14.991 L 8.5 9.125 L 2.634 14.991 L 2.01 14.367 L 7.876 8.5 L 2.009 2.634 L 2.633 2.01 L 8.5 7.876 L 14.367 2.01 L 14.991 2.634 L 9.125 8.5 Z" style="fill: rgb(255, 255, 255);"/>
  <path d="M 15.125 14.5 L 16.268 16.268 L 14.5 15.125 L 12.732 16.268 L 13.876 14.5 L 12.732 12.732 L 14.5 13.876 L 16.268 12.732 L 15.125 14.5 Z" style="fill: rgb(255, 255, 255);" transform="matrix(0.707107, 0.707107, -0.707107, 0.707107, 14.5, -6.006097)"/>
  <path d="M 3.125 2.5 L 4.268 4.268 L 2.5 3.125 L 0.732 4.268 L 1.876 2.5 L 0.732 0.732 L 2.5 1.876 L 4.268 0.732 L 3.125 2.5 Z" style="fill: rgb(255, 255, 255);" transform="matrix(0.707107, 0.707107, -0.707107, 0.707107, 2.5, -1.035534)"/>
  <path d="M 15.147 2.5 L 16.29 4.268 L 14.522 3.125 L 12.754 4.268 L 13.898 2.5 L 12.754 0.732 L 14.522 1.876 L 16.29 0.732 L 15.147 2.5 Z" style="fill: rgb(255, 255, 255);" transform="matrix(0.707107, 0.707107, -0.707107, 0.707107, 6.021162, -9.536372)"/>
  <path d="M 3.125 14.5 L 4.268 16.268 L 2.5 15.125 L 0.732 16.268 L 1.876 14.5 L 0.732 12.732 L 2.5 13.876 L 4.268 12.732 L 3.125 14.5 Z" style="fill: rgb(255, 255, 255);" transform="matrix(0.707107, 0.707107, -0.707107, 0.707107, 10.985281, 2.479185)"/>
  <rect x="11.825" y="11.825" width="5" height="5" style="stroke: rgb(0, 0, 0); fill-rule: nonzero; stroke-width: 0px; fill: rgb(255, 255, 255);" transform="matrix(0.707107, 0.707107, -0.707107, 0.707107, 8.5, -11.758615)"/>
</svg>