<?xml version="1.0" standalone="no"?>
<!DOCTYPE svg PUBLIC "-//W3C//DTD SVG 20010904//EN"
 "http://www.w3.org/TR/2001/REC-SVG-20010904/DTD/svg10.dtd">
<svg version="1.0" xmlns="http://www.w3.org/2000/svg"
 width="500.000000pt" height="500.000000pt" viewBox="0 0 500.000000 500.000000"
 preserveAspectRatio="xMidYMid meet">

<g transform="translate(0.000000,500.000000) scale(0.100000,-0.100000)"
fill="#000000" stroke="none">
<path d="M1186 4733 c-2 -10 -7 -74 -11 -143 -6 -118 -18 -317 -31 -495 -3
-44 -10 -82 -16 -84 -23 -8 -85 -72 -103 -104 l-18 -34 -161 -6 c-89 -3 -199
-11 -246 -17 -397 -54 -391 -53 -378 -66 12 -11 543 -47 679 -45 l86 2 17 -45
c18 -47 79 -110 122 -126 24 -10 25 -12 23 -107 -2 -149 33 -679 46 -691 10
-11 14 7 34 148 32 237 40 310 46 410 9 143 16 200 24 200 35 0 340 -326 459
-490 41 -58 106 -146 144 -196 113 -150 150 -277 124 -424 -25 -141 -107 -278
-293 -491 -59 -68 -163 -190 -230 -270 -125 -149 -155 -177 -195 -182 -22 -2
-23 1 -30 108 -6 105 -10 146 -44 415 -20 159 -24 180 -33 180 -15 0 -55 -523
-52 -666 2 -61 1 -62 -33 -84 -39 -24 -84 -73 -96 -105 -8 -21 -16 -22 -172
-28 -90 -3 -201 -11 -248 -17 -391 -53 -390 -53 -379 -64 12 -12 525 -48 690
-48 l90 -1 21 -43 c20 -44 63 -88 105 -107 21 -9 22 -15 20 -106 -1 -99 16
-402 34 -596 15 -165 21 -161 48 35 42 306 46 349 46 497 l0 151 38 12 c47 14
103 62 128 112 15 30 25 38 49 40 17 1 42 2 58 3 15 1 117 8 227 14 237 14
406 29 413 36 11 10 -7 14 -148 34 -268 36 -322 42 -441 48 -185 9 -194 -4
292 403 62 52 158 135 213 184 116 103 177 135 287 149 108 14 259 -2 325 -36
27 -14 135 -96 239 -183 105 -88 263 -219 352 -291 151 -124 223 -193 223
-212 0 -4 -55 -11 -122 -14 -123 -6 -176 -11 -448 -48 -196 -27 -200 -33 -35
-48 126 -12 465 -33 563 -35 64 -1 67 -2 81 -31 25 -54 80 -113 126 -135 l46
-22 -2 -92 c-2 -140 33 -672 45 -684 13 -12 18 11 36 155 11 81 24 184 30 228
6 44 14 152 17 241 l6 160 39 23 c40 23 95 89 104 127 7 26 37 33 143 33 41 0
98 3 125 6 28 3 134 10 236 15 198 11 260 18 260 30 0 8 -93 24 -230 40 -52 6
-126 16 -165 21 -38 6 -134 13 -212 16 l-141 6 -18 39 c-18 41 -87 108 -110
108 -18 0 -31 58 -38 170 -7 101 -16 178 -47 410 -20 141 -24 159 -34 148 -7
-7 -22 -176 -36 -413 -11 -184 -13 -218 -17 -267 -2 -22 -24 -23 -62 -3 -15 8
-104 95 -196 192 -311 331 -421 496 -464 700 -23 114 4 302 60 413 29 57 37
68 308 395 226 272 271 320 307 326 18 4 20 -2 21 -67 4 -183 39 -672 49 -682
12 -13 12 -12 65 383 10 71 17 207 20 386 0 3 11 11 24 17 43 19 107 84 132
134 l24 47 95 0 c53 0 114 2 138 5 23 3 128 11 232 16 202 11 265 18 265 30 0
8 -93 24 -230 40 -52 6 -124 16 -160 21 -36 5 -133 12 -217 16 -149 6 -151 6
-165 31 -7 14 -35 43 -63 64 -27 21 -55 42 -61 47 -6 5 -13 66 -17 142 -6 132
-10 165 -48 449 -34 243 -40 220 -69 -260 -7 -102 -12 -216 -11 -255 0 -38 -2
-75 -7 -80 -4 -6 -26 -23 -49 -38 -23 -16 -52 -43 -64 -61 l-22 -33 -166 -6
c-91 -4 -195 -11 -231 -16 -36 -5 -108 -15 -160 -21 -314 -36 -306 -51 35 -70
105 -5 209 -13 232 -16 23 -3 84 -5 135 -5 51 0 103 -2 115 -5 l22 -6 -19 -37
c-22 -43 -77 -96 -230 -222 -342 -282 -420 -347 -467 -391 -66 -61 -135 -93
-236 -109 -166 -26 -303 3 -393 83 -22 19 -68 56 -104 83 -126 95 -527 433
-583 492 -28 30 -51 89 -41 105 3 4 29 8 57 7 125 -4 657 37 657 51 0 12 -153
34 -485 70 -49 5 -129 10 -176 10 l-85 0 -32 44 c-17 25 -50 58 -74 73 -24 15
-46 32 -49 36 -3 5 -9 66 -12 135 -3 70 -11 159 -16 197 -5 39 -15 113 -21
165 -24 208 -39 266 -54 213z"/>
</g>
</svg>
