<?xml version="1.0" encoding="utf-8"?>
<svg viewBox="0 0 17 17" xmlns="http://www.w3.org/2000/svg">
  <g/>
  <path d="M 14.5 1.5 L 14.5 15.5 C 14.478 16.016 14.248 16.579 13.914 16.914 C 13.579 17.248 13.016 17.478 12.5 17.5 L 4.5 17.5 C 3.984 17.478 3.421 17.248 3.086 16.914 C 2.752 16.579 2.522 16.016 2.5 15.5 L 2.5 1.5 C 2.522 0.984 2.752 0.421 3.086 0.086 C 3.421 -0.248 3.984 -0.478 4.5 -0.5 L 12.5 -0.5 C 13.016 -0.478 13.579 -0.248 13.914 0.086 C 14.248 0.421 14.478 0.984 14.5 1.5 Z M 12.5 1.5 L 4.5 1.5 C 4.5 1.5 4.5 1.5 4.5 1.5 C 4.5 1.5 4.5 1.5 4.5 1.5 L 4.5 2.5 L 12.5 2.5 L 12.5 1.5 C 12.5 1.5 12.5 1.5 12.5 1.5 C 12.5 1.5 12.5 1.5 12.5 1.5 Z M 13.184 0.772 C 12.984 0.577 12.8 0.479 12.5 0.5 C 12.729 0.521 13.024 0.629 13.184 0.772 Z M 3.772 0.816 C 3.577 1.016 3.479 1.2 3.5 1.5 C 3.521 1.271 3.629 0.976 3.772 0.816 Z M 13.228 0.816 C 13.371 0.976 13.479 1.271 13.5 1.5 C 13.521 1.2 13.423 1.016 13.228 0.816 Z M 3.816 0.772 C 3.976 0.629 4.271 0.521 4.5 0.5 C 4.2 0.479 4.016 0.577 3.816 0.772 Z M 4.5 4.5 L 4.5 11.5 L 12.5 11.5 L 12.5 4.5 Z M 12.5 15.5 L 12.5 13.5 C 12.5 13.5 8.5 13.5 8.5 13.5 C 8.74 13.5 9.054 13.639 9.207 13.793 C 9.361 13.946 9.5 14.26 9.5 14.5 C 9.5 14.74 9.361 15.054 9.207 15.207 C 9.054 15.361 8.74 15.5 8.5 15.5 C 8.26 15.5 7.946 15.361 7.793 15.207 C 7.639 15.054 7.5 14.74 7.5 14.5 C 7.5 14.26 7.639 13.946 7.793 13.793 C 7.946 13.639 8.26 13.5 8.5 13.5 L 4.5 13.5 L 4.5 15.5 C 4.5 15.5 4.5 15.5 4.5 15.5 C 4.5 15.5 4.5 15.5 4.5 15.5 L 12.5 15.5 C 12.599 15.573 12.573 15.599 12.5 15.5 Z M 3.816 16.228 C 4.016 16.423 4.2 16.521 4.5 16.5 C 4.271 16.479 3.976 16.371 3.816 16.228 Z M 13.228 16.184 C 13.423 15.984 13.521 15.8 13.5 15.5 C 13.479 15.729 13.371 16.024 13.228 16.184 Z M 3.772 16.184 C 3.629 16.024 3.521 15.729 3.5 15.5 C 3.479 15.8 3.577 15.984 3.772 16.184 Z M 13.184 16.228 C 13.024 16.371 12.729 16.479 12.5 16.5 C 12.8 16.521 12.984 16.423 13.184 16.228 Z M 8.492 14.492 C 8.492 14.493 8.491 14.493 8.491 14.493 C 8.487 14.492 8.487 14.496 8.489 14.5 C 8.487 14.504 8.487 14.508 8.491 14.507 C 8.491 14.507 8.492 14.507 8.492 14.508 C 8.493 14.508 8.493 14.509 8.493 14.509 C 8.492 14.513 8.496 14.513 8.5 14.511 C 8.504 14.513 8.508 14.513 8.507 14.509 C 8.507 14.509 8.507 14.508 8.508 14.508 C 8.508 14.507 8.509 14.507 8.509 14.507 C 8.513 14.508 8.513 14.504 8.511 14.5 C 8.513 14.496 8.513 14.492 8.509 14.493 C 8.509 14.493 8.508 14.493 8.508 14.492 C 8.507 14.492 8.507 14.491 8.507 14.491 C 8.508 14.487 8.504 14.487 8.5 14.489 C 8.496 14.487 8.492 14.487 8.493 14.491 C 8.493 14.491 8.493 14.492 8.492 14.492 Z" style="fill: none;"/>
  <path d="M 25.5 1.5 L 25.5 15.5 C 25.478 16.016 25.248 16.579 24.914 16.914 C 24.579 17.248 24.016 17.478 23.5 17.5 L 15.5 17.5 C 14.984 17.478 14.421 17.248 14.086 16.914 C 13.752 16.579 13.522 16.016 13.5 15.5 L 13.5 8.5 C 13.501 4.567 13.673 2.383 13.953 1.2 C 14.102 0.572 14.325 0.12 14.557 -0.12 C 14.834 -0.406 15.241 -0.494 15.5 -0.5 L 23.5 -0.5 C 24.016 -0.478 24.579 -0.248 24.914 0.086 C 25.248 0.421 25.478 0.984 25.5 1.5 Z M 14.644 3.5 C 14.556 4.633 14.505 6.152 14.5 8.191 L 23.882 3.5 Z M 23.5 1.5 L 15.5 1.5 C 15.5 1.5 15.5 1.5 15.5 1.5 C 15.5 1.5 15.5 1.5 15.5 1.5 L 15.5 2.5 L 23.5 2.5 L 23.5 1.5 C 23.5 1.5 23.5 1.5 23.5 1.5 C 23.5 1.5 23.5 1.5 23.5 1.5 Z M 24.184 0.772 C 23.984 0.577 23.8 0.479 23.5 0.5 C 23.729 0.521 24.024 0.629 24.184 0.772 Z M 24.228 0.816 C 24.371 0.976 24.479 1.271 24.5 1.5 C 24.521 1.2 24.423 1.016 24.228 0.816 Z M 15.319 0.531 C 15.382 0.516 15.443 0.505 15.5 0.5 C 15.379 0.496 15.361 0.492 15.319 0.531 Z M 15.5 8.809 L 15.5 11.5 L 23.5 11.5 L 23.5 4.809 Z M 14.5 8.445 C 14.5 8.463 14.5 8.482 14.5 8.5 Z M 15.5 15.5 L 23.5 15.5 C 23.5 15.5 23.5 15.5 23.5 15.5 C 23.5 15.5 23.5 15.5 23.5 15.5 L 23.5 13.5 L 19.5 13.5 C 19.5 13.5 19.5 13.5 19.5 13.5 C 19.74 13.5 20.054 13.639 20.207 13.793 C 20.361 13.946 20.5 14.26 20.5 14.5 C 20.5 14.74 20.361 15.054 20.207 15.207 C 20.054 15.361 19.74 15.5 19.5 15.5 C 19.26 15.5 18.946 15.361 18.793 15.207 C 18.639 15.054 18.5 14.74 18.5 14.5 C 18.5 14.26 18.639 13.946 18.793 13.793 C 18.946 13.639 19.26 13.5 19.5 13.5 L 15.5 13.5 L 15.5 15.5 C 15.5 15.5 15.5 15.5 15.5 15.5 C 15.5 15.5 15.5 15.5 15.5 15.5 Z M 14.816 16.228 C 15.016 16.423 15.2 16.521 15.5 16.5 C 15.271 16.479 14.976 16.371 14.816 16.228 Z M 24.228 16.184 C 24.423 15.984 24.521 15.8 24.5 15.5 C 24.479 15.729 24.371 16.024 24.228 16.184 Z M 14.772 16.184 C 14.629 16.024 14.521 15.729 14.5 15.5 C 14.479 15.8 14.577 15.984 14.772 16.184 Z M 24.184 16.228 C 24.024 16.371 23.729 16.479 23.5 16.5 C 23.8 16.521 23.984 16.423 24.184 16.228 Z M 19.492 14.492 C 19.492 14.493 19.491 14.493 19.491 14.493 C 19.487 14.492 19.487 14.496 19.489 14.5 C 19.487 14.504 19.487 14.508 19.491 14.507 C 19.491 14.507 19.492 14.507 19.492 14.508 C 19.493 14.508 19.493 14.509 19.493 14.509 C 19.492 14.513 19.496 14.513 19.5 14.511 C 19.504 14.513 19.508 14.513 19.507 14.509 C 19.507 14.509 19.507 14.508 19.508 14.508 C 19.508 14.507 19.509 14.507 19.509 14.507 C 19.513 14.508 19.513 14.504 19.511 14.5 C 19.513 14.496 19.513 14.492 19.509 14.493 C 19.509 14.493 19.508 14.493 19.508 14.492 C 19.507 14.492 19.507 14.491 19.507 14.491 C 19.508 14.487 19.504 14.487 19.5 14.489 C 19.496 14.487 19.492 14.487 19.493 14.491 C 19.493 14.491 19.493 14.492 19.492 14.492 Z" style="fill: none;"/>
  <path d="M 25.5 1.5 L 25.5 15.5 C 25.478 16.016 25.248 16.579 24.914 16.914 C 24.579 17.248 24.016 17.478 23.5 17.5 L 15.5 17.5 C 14.984 17.478 14.421 17.248 14.086 16.914 C 13.752 16.579 13.522 16.016 13.5 15.5 L 13.5 8.5 C 13.501 4.567 13.673 2.383 13.953 1.2 C 14.102 0.572 14.325 0.12 14.557 -0.12 C 14.834 -0.406 15.241 -0.494 15.5 -0.5 L 23.5 -0.5 C 24.016 -0.478 24.579 -0.248 24.914 0.086 C 25.248 0.421 25.478 0.984 25.5 1.5 Z M 14.644 3.5 C 14.556 4.633 14.505 6.152 14.5 8.191 L 23.882 3.5 Z M 23.5 1.5 L 15.5 1.5 C 15.5 1.5 15.5 1.5 15.5 1.5 C 15.5 1.5 15.5 1.5 15.5 1.5 L 15.5 2.5 L 23.5 2.5 L 23.5 1.5 C 23.5 1.5 23.5 1.5 23.5 1.5 C 23.5 1.5 23.5 1.5 23.5 1.5 Z M 24.184 0.772 C 23.984 0.577 23.8 0.479 23.5 0.5 C 23.729 0.521 24.024 0.629 24.184 0.772 Z M 24.228 0.816 C 24.371 0.976 24.479 1.271 24.5 1.5 C 24.521 1.2 24.423 1.016 24.228 0.816 Z M 15.319 0.531 C 15.382 0.516 15.443 0.505 15.5 0.5 C 15.379 0.496 15.361 0.492 15.319 0.531 Z M 15.5 8.809 L 15.5 11.5 L 23.5 11.5 L 23.5 4.809 Z M 14.5 8.445 C 14.5 8.463 14.5 8.482 14.5 8.5 Z M 15.5 15.5 L 23.5 15.5 C 23.5 15.5 23.5 15.5 23.5 15.5 C 23.5 15.5 23.5 15.5 23.5 15.5 L 23.5 13.5 L 19.5 13.5 C 19.5 13.5 19.5 13.5 19.5 13.5 C 19.74 13.5 20.054 13.639 20.207 13.793 C 20.361 13.946 20.5 14.26 20.5 14.5 C 20.5 14.74 20.361 15.054 20.207 15.207 C 20.054 15.361 19.74 15.5 19.5 15.5 C 19.26 15.5 18.946 15.361 18.793 15.207 C 18.639 15.054 18.5 14.74 18.5 14.5 C 18.5 14.26 18.639 13.946 18.793 13.793 C 18.946 13.639 19.26 13.5 19.5 13.5 L 15.5 13.5 L 15.5 15.5 C 15.5 15.5 15.5 15.5 15.5 15.5 C 15.5 15.5 15.5 15.5 15.5 15.5 Z M 14.816 16.228 C 15.016 16.423 15.2 16.521 15.5 16.5 C 15.271 16.479 14.976 16.371 14.816 16.228 Z M 24.228 16.184 C 24.423 15.984 24.521 15.8 24.5 15.5 C 24.479 15.729 24.371 16.024 24.228 16.184 Z M 14.772 16.184 C 14.629 16.024 14.521 15.729 14.5 15.5 C 14.479 15.8 14.577 15.984 14.772 16.184 Z M 24.184 16.228 C 24.024 16.371 23.729 16.479 23.5 16.5 C 23.8 16.521 23.984 16.423 24.184 16.228 Z M 19.492 14.492 C 19.492 14.493 19.491 14.493 19.491 14.493 C 19.487 14.492 19.487 14.496 19.489 14.5 C 19.487 14.504 19.487 14.508 19.491 14.507 C 19.491 14.507 19.492 14.507 19.492 14.508 C 19.493 14.508 19.493 14.509 19.493 14.509 C 19.492 14.513 19.496 14.513 19.5 14.511 C 19.504 14.513 19.508 14.513 19.507 14.509 C 19.507 14.509 19.507 14.508 19.508 14.508 C 19.508 14.507 19.509 14.507 19.509 14.507 C 19.513 14.508 19.513 14.504 19.511 14.5 C 19.513 14.496 19.513 14.492 19.509 14.493 C 19.509 14.493 19.508 14.493 19.508 14.492 C 19.507 14.492 19.507 14.491 19.507 14.491 C 19.508 14.487 19.504 14.487 19.5 14.489 C 19.496 14.487 19.492 14.487 19.493 14.491 C 19.493 14.491 19.493 14.492 19.492 14.492 Z" style="fill: none;"/>
  <path d="M 25.5 1.5 L 25.5 15.5 C 25.478 16.016 25.248 16.579 24.914 16.914 C 24.579 17.248 24.016 17.478 23.5 17.5 L 15.5 17.5 C 14.984 17.478 14.421 17.248 14.086 16.914 C 13.752 16.579 13.522 16.016 13.5 15.5 L 13.5 8.5 C 13.501 4.567 13.673 2.383 13.953 1.2 C 14.102 0.572 14.325 0.12 14.557 -0.12 C 14.834 -0.406 15.241 -0.494 15.5 -0.5 L 23.5 -0.5 C 24.016 -0.478 24.579 -0.248 24.914 0.086 C 25.248 0.421 25.478 0.984 25.5 1.5 Z M 14.644 3.5 C 14.556 4.633 14.505 6.152 14.5 8.191 L 23.882 3.5 Z M 23.5 1.5 L 15.5 1.5 C 15.5 1.5 15.5 1.5 15.5 1.5 C 15.5 1.5 15.5 1.5 15.5 1.5 L 15.5 2.5 L 23.5 2.5 L 23.5 1.5 C 23.5 1.5 23.5 1.5 23.5 1.5 C 23.5 1.5 23.5 1.5 23.5 1.5 Z M 24.184 0.772 C 23.984 0.577 23.8 0.479 23.5 0.5 C 23.729 0.521 24.024 0.629 24.184 0.772 Z M 24.228 0.816 C 24.371 0.976 24.479 1.271 24.5 1.5 C 24.521 1.2 24.423 1.016 24.228 0.816 Z M 15.319 0.531 C 15.382 0.516 15.443 0.505 15.5 0.5 C 15.379 0.496 15.361 0.492 15.319 0.531 Z M 15.5 8.809 L 15.5 11.5 L 23.5 11.5 L 23.5 4.809 Z M 14.5 8.445 C 14.5 8.463 14.5 8.482 14.5 8.5 Z M 15.5 15.5 L 23.5 15.5 C 23.5 15.5 23.5 15.5 23.5 15.5 C 23.5 15.5 23.5 15.5 23.5 15.5 L 23.5 13.5 L 19.5 13.5 C 19.5 13.5 19.5 13.5 19.5 13.5 C 19.74 13.5 20.054 13.639 20.207 13.793 C 20.361 13.946 20.5 14.26 20.5 14.5 C 20.5 14.74 20.361 15.054 20.207 15.207 C 20.054 15.361 19.74 15.5 19.5 15.5 C 19.26 15.5 18.946 15.361 18.793 15.207 C 18.639 15.054 18.5 14.74 18.5 14.5 C 18.5 14.26 18.639 13.946 18.793 13.793 C 18.946 13.639 19.26 13.5 19.5 13.5 L 15.5 13.5 L 15.5 15.5 C 15.5 15.5 15.5 15.5 15.5 15.5 C 15.5 15.5 15.5 15.5 15.5 15.5 Z M 14.816 16.228 C 15.016 16.423 15.2 16.521 15.5 16.5 C 15.271 16.479 14.976 16.371 14.816 16.228 Z M 24.228 16.184 C 24.423 15.984 24.521 15.8 24.5 15.5 C 24.479 15.729 24.371 16.024 24.228 16.184 Z M 14.772 16.184 C 14.629 16.024 14.521 15.729 14.5 15.5 C 14.479 15.8 14.577 15.984 14.772 16.184 Z M 24.184 16.228 C 24.024 16.371 23.729 16.479 23.5 16.5 C 23.8 16.521 23.984 16.423 24.184 16.228 Z M 19.492 14.492 C 19.492 14.493 19.491 14.493 19.491 14.493 C 19.487 14.492 19.487 14.496 19.489 14.5 C 19.487 14.504 19.487 14.508 19.491 14.507 C 19.491 14.507 19.492 14.507 19.492 14.508 C 19.493 14.508 19.493 14.509 19.493 14.509 C 19.492 14.513 19.496 14.513 19.5 14.511 C 19.504 14.513 19.508 14.513 19.507 14.509 C 19.507 14.509 19.507 14.508 19.508 14.508 C 19.508 14.507 19.509 14.507 19.509 14.507 C 19.513 14.508 19.513 14.504 19.511 14.5 C 19.513 14.496 19.513 14.492 19.509 14.493 C 19.509 14.493 19.508 14.493 19.508 14.492 C 19.507 14.492 19.507 14.491 19.507 14.491 C 19.508 14.487 19.504 14.487 19.5 14.489 C 19.496 14.487 19.492 14.487 19.493 14.491 C 19.493 14.491 19.493 14.492 19.492 14.492 Z" style="fill: none;"/>
  <path d="M 12.5 0 L 4.5 0 C 3.673 0 3 0.673 3 1.5 L 3 15.5 C 3 16.327 3.673 17 4.5 17 L 12.5 17 C 13.327 17 14 16.327 14 15.5 L 14 1.5 C 14 0.673 13.327 0 12.5 0 Z M 4.5 1 L 12.5 1 C 12.776 1 13 1.224 13 1.5 L 13 3 L 4 3 L 4 1.5 C 4 1.224 4.224 1 4.5 1 Z M 13 4 L 13 12 L 4 12 L 4 4 L 13 4 Z M 12.5 16 L 4.5 16 C 4.224 16 4 15.776 4 15.5 L 4 13 L 13 13 L 13 15.5 C 13 15.776 12.776 16 12.5 16 Z M 9 14.5 C 9 14.776 8.776 15 8.5 15 C 8.224 15 8 14.776 8 14.5 C 8 14.224 8.224 14 8.5 14 C 8.776 14 9 14.224 9 14.5 Z" style="fill: rgb(0, 130, 209);"/>
  <path d="M 3 8.5 L 3 15.5 C 3 16.328 3.674 17 4.5 17 L 12.5 17 C 13.328 17 14 16.328 14 15.5 L 14 8.5 M 13 8.5 L 13 12 L 4 12 L 4 8.5 M 12.5 16 L 4.5 16 C 4.224 16 4 15.776 4 15.5 L 4 13 L 13 13 L 13 15.5 C 13 15.776 12.776 16 12.5 16 M 9 14.5 C 9 14.776 8.776 15 8.5 15 C 8.224 15 8 14.776 8 14.5 C 8 14.224 8.224 14 8.5 14 C 8.776 14 9 14.224 9 14.5" style="fill: rgb(255, 209, 0);"/>
</svg>