<?xml version="1.0" encoding="utf-8"?>
<svg viewBox="0 0 17 17" xmlns="http://www.w3.org/2000/svg">
  <path d="M12.461 5.57l-0.309 2.93h-2.342v8.5h-3.518v-8.5h-1.753v-2.93h1.753v-1.764c0-2.383 0.991-3.806 3.808-3.806h2.341v2.93h-1.465c-1.093 0-1.166 0.413-1.166 1.176v1.464h2.651z" style="fill: rgb(255, 255, 255);"/>
  <path d="M 15.913 1.53 L 0.79 7.318 C -0.23 7.685 -0.23 8.327 0.605 8.514 L 4.408 9.709 L 5.891 14.118 C 6.079 14.578 5.984 14.762 6.451 14.762 C 6.821 14.762 7.006 14.578 7.193 14.393 C 7.285 14.3 8.12 13.474 9.048 12.557 L 12.942 15.403 C 13.686 15.771 14.151 15.588 14.337 14.762 L 16.933 2.725 C 17.214 1.713 16.563 1.163 15.913 1.53 Z M 13.965 4.287 L 6.728 10.81 L 6.451 13.842 L 4.965 9.432 L 13.502 4.105 C 13.873 3.827 14.244 4.011 13.965 4.287 Z" style="fill: rgb(255, 255, 255);"/>
</svg>